HIERARCHY
ROOT pelvis
{
  OFFSET 0 100 0
  CHANNELS 6 Xposition Yposition Zposition Zrotation Xrotation Yrotation
  JOINT pelvis_right_femur
  {
    OFFSET -10.78128 -3.44521 -0.5502486
    CHANNELS 3 Zrotation Xrotation Yrotation
    JOINT right_femur_tibia
    {
      OFFSET -0.8047443 -44.0398 -0.1307829
      CHANNELS 3 Zrotation Xrotation Yrotation
      JOINT right_tibia_foot
      {
        OFFSET 3.006224 -47.83518 -5
        CHANNELS 3 Zrotation Xrotation Yrotation
        End Site
        {
          OFFSET 0 -5 15
        }
      }
    }
  }
  JOINT pelvis_left_femur
  {
    OFFSET 10.78128 -3.44521 -0.5502486
    CHANNELS 3 Zrotation Xrotation Yrotation
    JOINT left_femur_tibia
    {
      OFFSET 0.8047443 -44.0398 -0.1307829
      CHANNELS 3 Zrotation Xrotation Yrotation
      JOINT left_tibia_foot
      {
        OFFSET -4.370144 -48.10324 -4.275266
        CHANNELS 3 Zrotation Xrotation Yrotation
        End Site
        {
          OFFSET 0 -5 15
        }
      }
    }
  }
  JOINT pelvis_spine1
  {
    OFFSET 0 6.468898 -3.129235
    CHANNELS 3 Zrotation Xrotation Yrotation
    JOINT spine1
    {
      OFFSET 0 23.15396 4.99043
      CHANNELS 3 Zrotation Xrotation Yrotation
      JOINT spine2
      {
        OFFSET 0 20.79997 -5.064912
        CHANNELS 3 Zrotation Xrotation Yrotation
        JOINT neck
        {
          OFFSET 0 14.38658 9.616178
          CHANNELS 3 Zrotation Xrotation Yrotation
          End Site
          {
            OFFSET 0 20 0
          }
        }
      }
      JOINT right_manubrium
      {
        OFFSET -5.722621 16.35077 3.967754
        CHANNELS 3 Zrotation Xrotation Yrotation
        JOINT right_clavicle
        {
          OFFSET -13.16364 1.694482 -4.693211
          CHANNELS 3 Zrotation Xrotation Yrotation
          JOINT right_humerus
          {
            OFFSET -28.5034 -0.3100689 -2.792744
            CHANNELS 3 Zrotation Xrotation Yrotation
            JOINT right_radius
            {
              OFFSET -25.15693 0.02248979 -1.271978
              CHANNELS 3 Zrotation Xrotation Yrotation
              End Site
              {
                OFFSET -15 0 0
              }
            }
          }
        }
      }
      JOINT left_manubrium
      {
        OFFSET 5.722621 16.35077 3.967754
        CHANNELS 3 Zrotation Xrotation Yrotation
        JOINT left_clavicle
        {
          OFFSET 13.16364 1.694482 -4.693211
          CHANNELS 3 Zrotation Xrotation Yrotation
          JOINT left_humerus
          {
            OFFSET 29.39168 -1.063119 -2.237045
            CHANNELS 3 Zrotation Xrotation Yrotation
            JOINT left_radius
            {
              OFFSET 24.59957 -0.9528479 0.9047498
              CHANNELS 3 Zrotation Xrotation Yrotation
              End Site
              {
                OFFSET 15 -0 -0
              }
            }
          }
        }
      }
    }
  }
}
MOTION
Frames: 9
Frame Time: 0.0416666666667
-250.4581 103.4627 3098.394 -2.492672 -8.408593 -16.85092 6.056315 -3.783704 3.556119 -0 14.00061 -0 -5.073322 -4.22118 -5.529976 -2.460926 -0.3235082 -5.970945 -0 60.06229 -0 -5.563735 -6.276602 16.60104 1.335357 -2.620638 5.833196 -0.4350105 16.21591 -6.752761 2.430541 21.19421 2.465974 0.1910542 -19.73499 5.870353 -5.070264 -25.02156 11.46135 97.88314 17.20286 -19.01679 -0 0 13.7438 -21.80097 12.48315 12.14573 1.738976 -25.93344 -9.10341 -86.66548 14.42313 22.86464 0 0 -26.12925 5.936682 14.24183 9.068829
-252.3114 104.4354 3103.871 -2.08421 -8.68772 -17.76915 5.416912 1.45606 3.652259 -0 12.14033 -0 -4.812115 -6.734476 -4.730012 -1.928641 -7.66704 -5.530911 -0 58.04986 -0 -5.406855 -6.529761 17.51555 1.412202 -2.490977 6.203816 -0.5208497 16.35808 -6.540815 2.366621 20.85539 2.072137 -0.1886114 -19.45303 5.659705 -4.942195 -26.24486 11.4478 96.72025 17.30078 -16.96391 -0 0 16.6722 -21.72349 13.51017 12.94017 1.259468 -24.73763 -8.921107 -87.88021 14.46508 25.95244 0 0 -23.50922 4.990865 14.06188 10.11642
-254.0356 104.7563 3109.163 -1.875422 -8.611279 -18.55717 5.065298 6.092287 3.588247 -0 10.55116 -0 -4.559203 -9.232413 -3.913078 -0.7906354 -14.36154 -4.639013 -0 51.24152 -0 -5.249554 -7.014834 18.33771 1.454607 -2.340733 6.504717 -0.5847946 16.14026 -6.246458 2.287734 20.54108 1.717696 -0.6190679 -19.16592 5.528627 -4.845572 -27.29445 11.29558 95.38148 17.44324 -14.78527 -0 0 19.66161 -21.41347 14.33598 13.68239 0.9247173 -23.3549 -8.487146 -89.06916 14.66309 28.76187 0 0 -21.03177 3.945493 13.71618 11.22437
-255.6583 104.4244 3114.493 -1.974428 -7.941667 -19.26064 5.064425 9.995574 3.412737 -0 9.622663 -0 -4.205451 -11.77735 -3.061243 0.8915608 -19.93739 -3.384723 -0 41.22391 -0 -5.232975 -7.168219 18.93706 1.456488 -2.174609 6.70777 -0.6180849 15.55674 -5.877828 2.201141 20.31985 1.451845 -1.055967 -18.90006 5.50138 -4.782534 -28.06134 11.00949 93.93647 17.47042 -12.62621 -0 0 22.47661 -20.90662 14.86424 14.29274 0.7674723 -21.84746 -7.837025 -90.25498 15.13485 31.11065 0 0 -18.68261 2.812683 13.23947 12.37077
-257.2141 103.5959 3120.055 -2.195945 -6.712425 -19.92193 5.088983 13.17855 3.119614 -0 9.348312 -0 -3.762497 -14.07779 -2.087527 2.543994 -23.99643 -2.264499 -0 30.55072 -0 -5.340472 -6.893326 19.22038 1.420052 -1.996485 6.811481 -0.6268679 14.67767 -5.454872 2.124087 20.23 1.294392 -1.457377 -18.66855 5.579752 -4.757149 -28.49031 10.61951 92.50778 17.29454 -10.65266 -0 0 24.91854 -20.2709 15.04037 14.70931 0.7851655 -20.31008 -7.045858 -91.42476 15.90368 32.88322 0 0 -16.49271 1.629224 12.6697 13.52449
-258.7474 102.4804 3125.947 -2.311683 -5.439297 -20.57086 4.78205 15.78352 2.76561 -0 9.796498 -0 -3.363796 -15.57215 -1.118879 3.38996 -26.25229 -1.938741 -0 21.88234 -0 -5.47824 -6.542316 19.37403 1.353988 -1.799977 6.82906 -0.6304721 13.63248 -5.01023 2.076741 20.27368 1.23658 -1.789587 -18.45891 5.74506 -4.760965 -28.56907 10.17541 91.23576 16.94802 -9.019756 -0 0 26.83548 -19.57081 14.8756 14.89076 0.9357889 -18.85361 -6.219725 -92.49142 16.90092 34.01171 0 0 -14.575 0.466679 12.05232 14.62996
-260.2995 101.277 3132.169 -2.224892 -4.716777 -21.2269 4.02069 17.96861 2.448712 -0 11.26886 -0 -3.121696 -15.7295 -0.3858609 3.025668 -26.82776 -2.70907 -0 16.69788 -0 -5.523377 -6.515456 19.71073 1.260479 -1.568396 6.765531 -0.6485502 12.54957 -4.582688 2.077281 20.44363 1.255638 -2.032065 -18.23618 5.974882 -4.768252 -28.29347 9.7246 90.22449 16.53364 -7.835076 -0 0 28.11254 -18.8407 14.42638 14.80643 1.163671 -17.56971 -5.459223 -93.32516 18.05837 34.42936 0 0 -13.0496 -0.5964266 11.44477 15.61949
-261.8936 100.1902 3138.691 -1.938157 -4.729254 -21.84955 2.8722 19.73955 2.22816 -0 14.27378 -0 -3.057401 -14.17664 0.07247671 1.615571 -26.1301 -4.314837 -0 14.84859 -0 -5.335566 -6.895227 20.26736 1.132784 -1.286082 6.615756 -0.6908731 11.51538 -4.207009 2.136972 20.73479 1.327463 -2.180187 -17.96263 6.252597 -4.747369 -27.66445 9.297896 89.5166 16.15372 -7.140588 -0 0 28.68939 -18.09233 13.76422 14.44301 1.424407 -16.5096 -4.828644 -93.81349 19.3464 34.08119 0 0 -11.97703 -1.50474 10.90136 16.4373
-263.5266 99.44293 3145.485 -1.497254 -5.295507 -22.31787 1.503124 20.8414 2.109907 -0 19.35499 -0 -3.146892 -10.7477 0.3550831 -0.3783844 -24.46439 -6.205992 -0 15.34285 -0 -4.838829 -7.509357 20.75157 0.965578 -0.950943 6.37612 -0.755419 10.58725 -3.914238 2.256035 21.13139 1.43011 -2.242379 -17.61775 6.562708 -4.674288 -26.71056 8.915591 89.11546 15.89218 -6.932403 -0 0 28.5662 -17.339 12.97349 13.81885 1.685715 -15.70368 -4.361388 -93.87547 20.72289 32.95731 0 0 -11.38463 -2.2153 10.4666 17.03396
